Coordinates
version=1
nRows=6
nColumns=36
inDegrees=yes

Units are S.I. units (second, meters, Newtons, ...)
If the header above contains a line with 'inDegrees', this indicates whether rotational values are in degrees (yes) or radians (no).

endheader
time	pelvis_tilt	pelvis_list	pelvis_rotation	pelvis_tx	pelvis_ty	pelvis_tz	hip_flexion_r	hip_adduction_r	hip_rotation_r	knee_angle_r	knee_angle_r_beta	ankle_angle_r	subtalar_angle_r	mtp_angle_r	hip_flexion_l	hip_adduction_l	hip_rotation_l	knee_angle_l	knee_angle_l_beta	ankle_angle_l	subtalar_angle_l	mtp_angle_l	lumbar_extension	lumbar_bending	lumbar_rotation	arm_flex_r	arm_add_r	arm_rot_r	elbow_flex_r	pro_sup_r	arm_flex_l	arm_add_l	arm_rot_l	elbow_flex_l	pro_sup_l
      1.50000000	     -6.22452334	     -1.43358554	     -4.72537679	     -0.09754242	      1.32115436	     -0.09686407	      0.61449761	      2.28162592	      6.94395807	      0.08085877	      0.00141125	      6.99422504	    -12.23535951	     -7.49999987	      0.85063224	     -4.10672765	      7.36288149	      0.36921910	      0.00644409	      0.82531421	     -7.99055475	     -7.49999987	      8.12535763	      2.96341073	     -5.14257088	      0.54661553	    -10.73731046	     13.55255909	     17.94970605	     99.51277437	     -0.02806777	     -9.92012357	     20.27822885	     14.29425040	     97.77484833
      1.51666670	     -6.12247561	     -1.44030997	     -4.70694736	     -0.09764436	      1.32429395	     -0.09699548	      0.50806804	      2.28974696	      6.92513781	      0.08074297	      0.00140923	      7.00159474	    -12.20234022	     -7.49999987	      0.78410858	     -4.10837583	      7.41672603	      0.36995549	      0.00645694	      0.76862772	     -8.04334471	     -7.49999987	      7.81610328	      2.99872018	     -5.10437375	      0.40225136	    -10.75457347	     12.25988272	     18.49895508	    101.74724504	     -0.09216807	     -9.92370826	     19.12120538	     14.75337076	     99.87393545
      1.53333330	     -6.13298514	     -1.41344903	     -4.67290771	     -0.08725144	      1.32143517	     -0.09863593	      0.46611965	      2.24080895	      6.90912485	      0.07983190	      0.00139333	      6.95964581	    -12.28033907	     -7.49999987	      0.73548369	     -4.06948304	      7.42807424	      0.35377209	      0.00617449	      0.58124770	     -8.19020939	     -7.49999987	      7.87956158	      3.00264155	     -5.11698431	      0.29378228	    -10.81269765	     12.83900645	     18.39594347	     99.13298699	     -0.15835184	     -9.79942853	     19.52239078	     14.51017792	     97.09839939
      1.55000000	     -5.99760641	     -1.44572255	     -4.61942509	     -0.09778462	      1.32137828	     -0.09712391	      0.32554551	      2.26401654	      6.92547084	      0.07996276	      0.00139561	      6.98588772	    -12.27215875	     -7.49999987	      0.59892070	     -4.10343789	      7.53690463	      0.36045047	      0.00629105	      0.44036318	     -8.40337255	     -7.49999987	      7.58949592	      3.06971332	     -5.25346887	      0.41744494	    -11.00513438	     13.81624299	     18.51281116	     98.02776888	     -0.07742070	     -9.86568870	     20.11819514	     14.68114464	     95.93027085
      1.56666670	     -5.88325392	     -1.40895990	     -4.59198151	     -0.09750530	      1.32194605	     -0.09692890	      0.23173118	      2.22345131	      6.82157248	      0.08055080	      0.00140588	      7.01844963	    -12.14267178	     -7.49999987	      0.49740603	     -4.05894623	      7.41861876	      0.37402162	      0.00652791	      0.60222917	     -8.10945099	     -7.49999987	      7.31167359	      3.00321439	     -5.27021455	      0.31373134	    -10.86738016	     12.26943673	     18.85166359	    101.19764359	     -0.07902244	     -9.85747000	     18.43883324	     14.96387852	     99.06569452
      1.58333330	     -5.83426536	     -1.40072767	     -4.57407255	     -0.08753342	      1.32182283	     -0.09875768	      0.16572113	      2.19267606	      6.80452745	      0.08063462	      0.00140734	      6.93902652	    -12.25219449	     -7.49999987	      0.40312346	     -4.03396579	      7.54144016	      0.36662729	      0.00639885	      0.47971666	     -8.31887399	     -7.49999987	      7.27763996	      3.02582836	     -5.27609799	      0.11698405	    -10.99976639	     12.99140297	     18.94049421	     99.22289595	     -0.25585223	     -9.81972085	     18.85867920	     14.95859485	     96.95448269
